<svg xmlns="http://www.w3.org/2000/svg" xmlns:xlink="http://www.w3.org/1999/xlink"><symbol id="cart" viewBox="0 0 24 24"><g fill="currentColor">
  <path d="M17.8571 4.8V2.4H8.33333V4.8H17.8571ZM7.14286 19.2C6.51139 19.2 5.90578 19.4529 5.45927 19.9029C5.01275 20.353 4.7619 20.9635 4.7619 21.6C4.7619 22.2365 5.01275 22.847 5.45927 23.2971C5.90578 23.7471 6.51139 24 7.14286 24C7.77432 24 8.37993 23.7471 8.82644 23.2971C9.27296 22.847 9.52381 22.2365 9.52381 21.6C9.52381 20.9635 9.27296 20.353 8.82644 19.9029C8.37993 19.4529 7.77432 19.2 7.14286 19.2ZM19.0476 19.2C18.4162 19.2 17.8105 19.4529 17.364 19.9029C16.9175 20.353 16.6667 20.9635 16.6667 21.6C16.6667 22.2365 16.9175 22.847 17.364 23.2971C17.8105 23.7471 18.4162 24 19.0476 24C19.6791 24 20.2847 23.7471 20.7312 23.2971C21.1777 22.847 21.4286 22.2365 21.4286 21.6C21.4286 20.9635 21.1777 20.353 20.7312 19.9029C20.2847 19.4529 19.6791 19.2 19.0476 19.2ZM7.34524 15.3L7.38095 15.156L8.45238 13.2H17.3214C18.2143 13.2 19 12.708 19.4048 11.964L24 3.552L21.9286 2.4H21.9167L20.6071 4.8L17.3214 10.8H8.96428L8.80952 10.476L6.14286 4.8L5.0119 2.4L3.89286 0H0V2.4H2.38095L6.66667 11.508L5.05952 14.448C4.86905 14.784 4.7619 15.18 4.7619 15.6C4.7619 16.2365 5.01275 16.847 5.45927 17.2971C5.90578 17.7471 6.51139 18 7.14286 18H21.4286V15.6H7.64286C7.4881 15.6 7.34524 15.468 7.34524 15.3Z"/>
</g></symbol><symbol id="catalog-burger" viewBox="0 0 22 15"><g fill="currentColor">
  <rect width="22" height="3" rx="0.7"/>
  <rect y="12" width="22" height="3" rx="0.7"/>
  <rect y="6" width="22" height="3" rx="0.7"/>
</g></symbol><symbol id="close-icon" viewBox="0 0 14 14"><g fill="currentColor">
  <path d="M12.2502 0L6.99938 5.24954L1.74984 0L0 1.74985L5.24954 6.99938L0 12.2489L1.74984 13.9988L6.99938 8.74923L12.2502 13.9988L14 12.2489L8.75046 6.99938L14 1.74985L12.2502 0Z"/>
</g></symbol><symbol id="menu-burger" viewBox="0 0 22 15"><g fill="currentColor">
  <rect width="22" height="3" rx="0.7"/>
  <rect y="12" width="13" height="3" rx="0.7"/>
  <rect y="6" width="22" height="3" rx="0.7"/>
</g></symbol><symbol id="search" viewBox="0 0 18 18"><g fill="currentColor">
  <path d="M7.69765 15.3945C9.47389 15.3945 11.1068 14.7835 12.4096 13.7704L16.6394 18L18 16.6395L13.7701 12.4099C14.7843 11.1062 15.3953 9.47338 15.3953 7.69724C15.3953 3.45318 11.9419 0 7.69765 0C3.45336 0 0 3.45318 0 7.69724C0 11.9413 3.45336 15.3945 7.69765 15.3945ZM7.69765 1.92431C10.8816 1.92431 13.4709 4.51347 13.4709 7.69724C13.4709 10.881 10.8816 13.4702 7.69765 13.4702C4.51371 13.4702 1.92441 10.881 1.92441 7.69724C1.92441 4.51347 4.51371 1.92431 7.69765 1.92431Z"/>
</g></symbol><symbol id="user" viewBox="0 0 19 20"><g fill="currentColor">
  <path d="M9.0127 0.93573C6.2557 0.93573 4.0127 3.17873 4.0127 5.93573C4.0127 8.69273 6.2557 10.9357 9.0127 10.9357C11.7697 10.9357 14.0127 8.69273 14.0127 5.93573C14.0127 3.17873 11.7697 0.93573 9.0127 0.93573ZM9.0127 8.93573C7.3587 8.93573 6.0127 7.58973 6.0127 5.93573C6.0127 4.28173 7.3587 2.93573 9.0127 2.93573C10.6667 2.93573 12.0127 4.28173 12.0127 5.93573C12.0127 7.58973 10.6667 8.93573 9.0127 8.93573ZM18.0127 19.9357V18.9357C18.0127 15.0767 14.8717 11.9357 11.0127 11.9357H7.0127C3.1527 11.9357 0.0126953 15.0767 0.0126953 18.9357V19.9357H2.0127V18.9357C2.0127 16.1787 4.2557 13.9357 7.0127 13.9357H11.0127C13.7697 13.9357 16.0127 16.1787 16.0127 18.9357V19.9357H18.0127Z"/>
</g></symbol></svg>