<svg xmlns="http://www.w3.org/2000/svg" xmlns:xlink="http://www.w3.org/1999/xlink"><symbol id="cart" viewBox="0 0 24 24"><g fill="currentColor">
  <path d="M17.8571 4.8V2.4H8.33333V4.8H17.8571ZM7.14286 19.2C6.51139 19.2 5.90578 19.4529 5.45927 19.9029C5.01275 20.353 4.7619 20.9635 4.7619 21.6C4.7619 22.2365 5.01275 22.847 5.45927 23.2971C5.90578 23.7471 6.51139 24 7.14286 24C7.77432 24 8.37993 23.7471 8.82644 23.2971C9.27296 22.847 9.52381 22.2365 9.52381 21.6C9.52381 20.9635 9.27296 20.353 8.82644 19.9029C8.37993 19.4529 7.77432 19.2 7.14286 19.2ZM19.0476 19.2C18.4162 19.2 17.8105 19.4529 17.364 19.9029C16.9175 20.353 16.6667 20.9635 16.6667 21.6C16.6667 22.2365 16.9175 22.847 17.364 23.2971C17.8105 23.7471 18.4162 24 19.0476 24C19.6791 24 20.2847 23.7471 20.7312 23.2971C21.1777 22.847 21.4286 22.2365 21.4286 21.6C21.4286 20.9635 21.1777 20.353 20.7312 19.9029C20.2847 19.4529 19.6791 19.2 19.0476 19.2ZM7.34524 15.3L7.38095 15.156L8.45238 13.2H17.3214C18.2143 13.2 19 12.708 19.4048 11.964L24 3.552L21.9286 2.4H21.9167L20.6071 4.8L17.3214 10.8H8.96428L8.80952 10.476L6.14286 4.8L5.0119 2.4L3.89286 0H0V2.4H2.38095L6.66667 11.508L5.05952 14.448C4.86905 14.784 4.7619 15.18 4.7619 15.6C4.7619 16.2365 5.01275 16.847 5.45927 17.2971C5.90578 17.7471 6.51139 18 7.14286 18H21.4286V15.6H7.64286C7.4881 15.6 7.34524 15.468 7.34524 15.3Z"/>
</g></symbol><symbol id="catalog-burger" viewBox="0 0 22 15"><g fill="currentColor">
  <rect width="22" height="3" rx="0.7"/>
  <rect y="12" width="22" height="3" rx="0.7"/>
  <rect y="6" width="22" height="3" rx="0.7"/>
</g></symbol><symbol id="close-icon" viewBox="0 0 14 14"><g fill="currentColor">
  <path d="M12.2502 0L6.99938 5.24954L1.74984 0L0 1.74985L5.24954 6.99938L0 12.2489L1.74984 13.9988L6.99938 8.74923L12.2502 13.9988L14 12.2489L8.75046 6.99938L14 1.74985L12.2502 0Z"/>
</g></symbol><symbol id="instagram" viewBox="0 0 17 16"><g fill="currentColor">
  <path d="M5.75063 8C5.75063 6.61934 6.92556 5.4998 8.37532 5.4998C9.82507 5.4998 11.0006 6.61934 11.0006 8C11.0006 9.38066 9.82507 10.5002 8.37532 10.5002C6.92556 10.5002 5.75063 9.38066 5.75063 8ZM4.33144 8C4.33144 10.127 6.14188 11.8512 8.37532 11.8512C10.6088 11.8512 12.4192 10.127 12.4192 8C12.4192 5.873 10.6088 4.14884 8.37532 4.14884C6.14188 4.14884 4.33144 5.873 4.33144 8ZM11.6342 3.99614C11.6342 4.17414 11.6895 4.34817 11.7933 4.49621C11.8971 4.64426 12.0446 4.75967 12.2173 4.82785C12.3899 4.89604 12.5799 4.91393 12.7633 4.87928C12.9466 4.84462 13.115 4.75897 13.2473 4.63315C13.3795 4.50733 13.4696 4.347 13.5061 4.17243C13.5426 3.99787 13.524 3.8169 13.4525 3.65242C13.3811 3.48794 13.26 3.34733 13.1046 3.24838C12.9493 3.14943 12.7666 3.09657 12.5797 3.0965H12.5793C12.3287 3.09661 12.0885 3.19142 11.9113 3.3601C11.7341 3.52878 11.6345 3.75754 11.6342 3.99614ZM5.19369 14.1048C4.42588 14.0715 4.00855 13.9497 3.73121 13.8468C3.36353 13.7105 3.10119 13.5481 2.82536 13.2858C2.54954 13.0235 2.3788 12.7739 2.23629 12.4237C2.12817 12.1597 2.00028 11.7622 1.96538 11.031C1.9272 10.2404 1.91957 10.0029 1.91957 8.00006C1.91957 5.9972 1.92783 5.76038 1.96538 4.96916C2.00034 4.23794 2.12918 3.84116 2.23629 3.57638C2.37943 3.22622 2.54991 2.97638 2.82536 2.7137C3.10081 2.45102 3.3629 2.28842 3.73121 2.1527C4.00842 2.04974 4.42588 1.92794 5.19369 1.8947C6.02381 1.85834 6.27317 1.85108 8.37532 1.85108C10.4775 1.85108 10.7271 1.85894 11.5579 1.8947C12.3257 1.928 12.7423 2.0507 13.0204 2.1527C13.388 2.28842 13.6504 2.45138 13.9262 2.7137C14.202 2.97602 14.3721 3.22622 14.5153 3.57638C14.6234 3.84038 14.7513 4.23794 14.7862 4.96916C14.8244 5.76038 14.832 5.9972 14.832 8.00006C14.832 10.0029 14.8244 10.2397 14.7862 11.031C14.7512 11.7622 14.6227 12.1596 14.5153 12.4237C14.3721 12.7739 14.2017 13.0237 13.9262 13.2858C13.6508 13.5479 13.388 13.7105 13.0204 13.8468C12.7432 13.9498 12.3257 14.0716 11.5579 14.1048C10.7278 14.1412 10.4784 14.1484 8.37532 14.1484C6.27223 14.1484 6.02356 14.1412 5.19369 14.1048ZM5.12848 0.54542C4.29011 0.58178 3.71722 0.70838 3.21692 0.89378C2.69879 1.08524 2.26016 1.3421 1.82186 1.75886C1.38355 2.17562 1.11453 2.594 0.913486 3.08744C0.718808 3.5642 0.585872 4.10948 0.547693 4.9079C0.508883 5.70758 0.5 5.96324 0.5 8C0.5 10.0368 0.508883 10.2924 0.547693 11.0921C0.585872 11.8906 0.718808 12.4358 0.913486 12.9126C1.11453 13.4057 1.38361 13.8246 1.82186 14.2411C2.2601 14.6577 2.69879 14.9142 3.21692 15.1062C3.71817 15.2916 4.29011 15.4182 5.12848 15.4546C5.96862 15.4909 6.23663 15.5 8.37532 15.5C10.514 15.5 10.7825 15.4915 11.6222 15.4546C12.4606 15.4182 13.0331 15.2916 13.5337 15.1062C14.0515 14.9142 14.4905 14.6579 14.9288 14.2411C15.3671 13.8244 15.6355 13.4057 15.8371 12.9126C16.0318 12.4358 16.1654 11.8905 16.2029 11.0921C16.2411 10.2918 16.25 10.0368 16.25 8C16.25 5.96324 16.2411 5.70758 16.2029 4.9079C16.1648 4.10942 16.0318 3.5639 15.8371 3.08744C15.6355 2.5943 15.3664 2.17628 14.9288 1.75886C14.4912 1.34144 14.0515 1.08524 13.5343 0.89378C13.0331 0.70838 12.4605 0.58118 11.6228 0.54542C10.7831 0.50906 10.5146 0.5 8.37595 0.5C6.23726 0.5 5.96862 0.50846 5.12848 0.54542Z"/>
</g></symbol><symbol id="menu-burger" viewBox="0 0 22 15"><g fill="currentColor">
  <rect width="22" height="3" rx="0.7"/>
  <rect y="12" width="13" height="3" rx="0.7"/>
  <rect y="6" width="22" height="3" rx="0.7"/>
</g></symbol><symbol id="more" viewBox="0 0 39 22"><g fill="currentColor">
  <path d="M0 10.0833H35.1739L26.9043 1.45176L28.4783 0L39 11L28.4783 22L27.0435 20.5652L35.1739 11.9167H0V10.0833Z"/>
</g></symbol><symbol id="search" viewBox="0 0 18 18"><g fill="currentColor">
  <path d="M7.69765 15.3945C9.47389 15.3945 11.1068 14.7835 12.4096 13.7704L16.6394 18L18 16.6395L13.7701 12.4099C14.7843 11.1062 15.3953 9.47338 15.3953 7.69724C15.3953 3.45318 11.9419 0 7.69765 0C3.45336 0 0 3.45318 0 7.69724C0 11.9413 3.45336 15.3945 7.69765 15.3945ZM7.69765 1.92431C10.8816 1.92431 13.4709 4.51347 13.4709 7.69724C13.4709 10.881 10.8816 13.4702 7.69765 13.4702C4.51371 13.4702 1.92441 10.881 1.92441 7.69724C1.92441 4.51347 4.51371 1.92431 7.69765 1.92431Z"/>
</g></symbol><symbol id="user" viewBox="0 0 19 20"><g fill="currentColor">
  <path d="M9.0127 0.93573C6.2557 0.93573 4.0127 3.17873 4.0127 5.93573C4.0127 8.69273 6.2557 10.9357 9.0127 10.9357C11.7697 10.9357 14.0127 8.69273 14.0127 5.93573C14.0127 3.17873 11.7697 0.93573 9.0127 0.93573ZM9.0127 8.93573C7.3587 8.93573 6.0127 7.58973 6.0127 5.93573C6.0127 4.28173 7.3587 2.93573 9.0127 2.93573C10.6667 2.93573 12.0127 4.28173 12.0127 5.93573C12.0127 7.58973 10.6667 8.93573 9.0127 8.93573ZM18.0127 19.9357V18.9357C18.0127 15.0767 14.8717 11.9357 11.0127 11.9357H7.0127C3.1527 11.9357 0.0126953 15.0767 0.0126953 18.9357V19.9357H2.0127V18.9357C2.0127 16.1787 4.2557 13.9357 7.0127 13.9357H11.0127C13.7697 13.9357 16.0127 16.1787 16.0127 18.9357V19.9357H18.0127Z"/>
</g></symbol><symbol id="vk" viewBox="0 0 18 11"><g fill="currentColor">
  <path fill-rule="evenodd" clip-rule="evenodd" d="M16.8714 1.16018C16.9862 0.779672 16.8714 0.5 16.3255 0.5H14.5204C14.0614 0.5 13.8499 0.741569 13.7352 1.00803C13.7352 1.00803 12.8172 3.23423 11.5167 4.68031C11.096 5.09892 10.9048 5.23196 10.6753 5.23196C10.5605 5.23196 10.3944 5.09892 10.3944 4.71842V1.16018C10.3944 0.703468 10.2612 0.5 9.87869 0.5H7.04209C6.75534 0.5 6.58282 0.711935 6.58282 0.912836C6.58282 1.34581 7.23292 1.44562 7.29997 2.66335V5.30829C7.29997 5.88816 7.19475 5.99336 6.96525 5.99336C6.35332 5.99336 4.86487 3.75701 3.98192 1.19828C3.80889 0.700901 3.63534 0.5 3.174 0.5H1.36889C0.853149 0.5 0.75 0.741569 0.75 1.00803C0.75 1.48372 1.36206 3.84322 3.59949 6.96374C5.09129 9.09463 7.19269 10.25 9.10508 10.25C10.2526 10.25 10.3944 9.99342 10.3944 9.55146V7.94079C10.3944 7.42763 10.5031 7.32526 10.8663 7.32526C11.1343 7.32526 11.5932 7.45842 12.6642 8.48589C13.8881 9.70349 14.0898 10.25 14.7783 10.25H16.5834C17.0991 10.25 17.357 9.99342 17.2082 9.48706C17.0455 8.98237 16.4612 8.25035 15.6857 7.38235C15.265 6.88753 14.6339 6.35475 14.4428 6.08842C14.175 5.74588 14.2514 5.59373 14.4428 5.28943C14.4428 5.28943 16.6419 2.20689 16.8714 1.16031V1.16018Z"/>
</g></symbol><symbol id="whatsapp" viewBox="0 0 15 15"><g fill="currentColor">
  <path d="M12.4421 2.32973C11.1219 0.981757 9.297 0.25 7.43324 0.25C3.47275 0.25 0.288828 3.44662 0.327657 7.33649C0.327657 8.56892 0.677112 9.76284 1.25954 10.8412L0.25 14.5L4.01635 13.5372C5.06471 14.1149 6.22956 14.3845 7.39441 14.3845C11.3161 14.3845 14.5 11.1878 14.5 7.29797C14.5 5.41081 13.7623 3.63919 12.4421 2.32973ZM7.43324 13.1905C6.38488 13.1905 5.33651 12.9209 4.44346 12.3818L4.21049 12.2662L1.95845 12.8439L2.54087 10.6486L2.38556 10.4176C0.677112 7.68311 1.49251 4.06284 4.28815 2.36824C7.08379 0.673649 10.6948 1.48243 12.4033 4.25541C14.1117 7.02838 13.2963 10.6101 10.5007 12.3047C9.60763 12.8824 8.52044 13.1905 7.43324 13.1905ZM10.8501 8.91554L10.423 8.72297C10.423 8.72297 9.80177 8.45338 9.41349 8.26081C9.37466 8.26081 9.33583 8.2223 9.297 8.2223C9.18052 8.2223 9.10286 8.26081 9.0252 8.29932C9.0252 8.29932 8.98638 8.33784 8.44278 8.95405C8.40395 9.03108 8.32629 9.06959 8.24864 9.06959H8.20981C8.17098 9.06959 8.09332 9.03108 8.0545 8.99257L7.86035 8.91554C7.43324 8.72297 7.04496 8.49189 6.73433 8.18378C6.65668 8.10676 6.54019 8.02973 6.46253 7.9527C6.19074 7.68311 5.91894 7.375 5.7248 7.02838L5.68597 6.95135C5.64714 6.91284 5.64714 6.87432 5.60831 6.7973C5.60831 6.72027 5.60831 6.64324 5.64714 6.60473C5.64714 6.60473 5.80245 6.41216 5.91894 6.29662C5.99659 6.21959 6.03542 6.10405 6.11308 6.02703C6.19074 5.91149 6.22956 5.75743 6.19074 5.64189C6.15191 5.44932 5.68597 4.40946 5.56948 4.17838C5.49183 4.06284 5.41417 4.02432 5.29768 3.98581H5.1812C5.10354 3.98581 4.98706 3.98581 4.87057 3.98581C4.79292 3.98581 4.71526 4.02432 4.6376 4.02432L4.59877 4.06284C4.52112 4.10135 4.44346 4.17838 4.3658 4.21689C4.28815 4.29392 4.24932 4.37095 4.17166 4.44797C3.89986 4.79459 3.74455 5.21824 3.74455 5.64189C3.74455 5.95 3.82221 6.25811 3.93869 6.5277L3.97752 6.64324C4.32698 7.375 4.79292 8.02973 5.41417 8.60743L5.56948 8.76149C5.68597 8.87703 5.80245 8.95405 5.88011 9.06959C6.6955 9.76284 7.62738 10.2635 8.67575 10.5331C8.79223 10.5716 8.94755 10.5716 9.06403 10.6101C9.18052 10.6101 9.33583 10.6101 9.45232 10.6101C9.64646 10.6101 9.87943 10.5331 10.0347 10.4561C10.1512 10.3791 10.2289 10.3791 10.3065 10.302L10.3842 10.225C10.4619 10.148 10.5395 10.1095 10.6172 10.0324C10.6948 9.95541 10.7725 9.87838 10.8113 9.80135C10.889 9.6473 10.9278 9.45473 10.9666 9.26216C10.9666 9.18513 10.9666 9.0696 10.9666 8.99257C10.9666 8.99257 10.9278 8.95405 10.8501 8.91554Z"/>
</g></symbol></svg>